# xmcd
#
# Track frame offsets:
#	150
#	16407
#	33481
#	49755
#	66770
#	89382
#	107128
#	125994
#	139563
#	165003
#	182196
#	206474
#	224727
#	245754
#	264583
#	281361
#
# Disc length: 4195 seconds
#
# Revision: 6
# Processed by: cddbd v1.5.2PL0 Copyright (c) Steve Scherf et al.
# Submitted via: EasyCDDAExtractor 12.0.1.1
#
DISCID=ee106110
DTITLE=Kinks - Come Dancing With the Kinks - The Best of the Kinks 1977-1986
DYEAR=1986
DGENRE=Blues
TTITLE0=You Really Got Me (Live)
TTITLE1=Destroyer
TTITLE2=(Wish I Could Fly Like) Superman
TTITLE3=Juke Box Music
TTITLE4=A Rock N Roll Fantasy
TTITLE5=Come Dancing
TTITLE6=Do It Again
TTITLE7=Better Things
TTITLE8=Lola (Live)
TTITLE9=Low Budget
TTITLE10=Long Distance
TTITLE11=Heart Of Gold
TTITLE12=Don't Forget To Dance
TTITLE13=Living On A Thin Line
TTITLE14=Father Christmas
TTITLE15=Celluloid Heroes (Live)
EXTD=
EXTT0=
EXTT1=
EXTT2=
EXTT3=
EXTT4=
EXTT5=
EXTT6=
EXTT7=
EXTT8=
EXTT9=
EXTT10=
EXTT11=
EXTT12=
EXTT13=
EXTT14=
EXTT15=
PLAYORDER=
